<svg width="30" height="30" viewBox="0 0 30 30" fill="none" xmlns="http://www.w3.org/2000/svg">
<path d="M27.0749 20.9498C27.0749 24.3317 24.3325 27.0732 20.9505 27.0732H9.05145C5.66944 27.0732 2.92709 24.3317 2.92709 20.9498V9.05024C2.92709 5.6691 5.66944 2.92681 9.05145 2.92681H20.9505C24.3325 2.92681 27.0749 5.6691 27.0749 9.05024V20.9498ZM30.001 8.91611C30.001 3.99209 26.0096 0 21.0846 0H8.91732C3.99239 0 0.000976562 3.99209 0.000976562 8.91611V21.0839C0.000976562 26.0079 3.99239 30 8.91732 30H21.0846C26.0096 30 30.001 26.0079 30.001 21.0839V8.91611ZM24.6822 6.98713C24.6822 7.94852 23.903 8.72771 22.9423 8.72771C21.9809 8.72771 21.2017 7.94852 21.2017 6.98713C21.2017 6.02574 21.9809 5.24732 22.9423 5.24732C23.903 5.24732 24.6822 6.02574 24.6822 6.98713Z" fill="white"/>
<path d="M1.50098 14.25H28.501V6.5C28.501 3.73858 26.2624 1.5 23.501 1.5H6.50098C3.73955 1.5 1.50098 3.73858 1.50098 6.5V14.25Z" fill="white"/>
<path d="M15.001 22.5C10.8588 22.5 7.50098 19.5 7.50098 14.25H22.501C22.501 20.25 19.1431 22.5 15.001 22.5Z" fill="white"/>
<path d="M15.001 10.5C12.5157 10.5 10.501 12.5147 10.501 15H19.501C19.501 12.5147 17.4863 10.5 15.001 10.5Z" fill="#B2C3FB"/>
<path d="M15.001 19.5C12.5157 19.5 10.501 17.5714 10.501 15H19.501C19.501 18.2143 17.4863 19.5 15.001 19.5Z" fill="#B2C3FB"/>
<circle cx="23.251" cy="6.75" r="2.25" fill="#B2C3FB"/>
</svg>
