<svg width="30" height="30" viewBox="0 0 30 30" fill="none" xmlns="http://www.w3.org/2000/svg">
<g clip-path="url(#clip0)">
<path d="M28.9446 17.3662C29.8396 9.83241 28.5146 5.07616 26.1246 2.92491L26.1258 2.92366C22.2683 -0.750091 9.24083 -1.29384 4.62583 3.08866C2.55333 5.23241 1.82333 8.37866 1.74333 12.2737C1.66333 16.1699 1.56833 23.4687 8.36958 25.4487H8.37583L8.36958 28.4724C8.36958 28.4724 8.32333 29.6974 9.10583 29.9437C10.0008 30.2337 10.4058 29.6649 13.1896 26.3399C17.8446 26.7437 21.4196 25.8187 21.8258 25.6837C22.7658 25.3687 28.0846 24.6649 28.9446 17.3662ZM13.6483 24.2124C13.6483 24.2124 10.7021 27.8862 9.78583 28.8399C9.48583 29.1499 9.15708 29.1212 9.16208 28.5062C9.16208 28.1024 9.18458 23.4862 9.18458 23.4862C3.41833 21.8337 3.75833 15.6187 3.82083 12.3674C3.88333 9.11491 4.47833 6.45116 6.23333 4.65741C10.2821 0.861159 21.7033 1.70991 24.6133 4.44491C28.1708 7.59866 26.9046 16.5087 26.9121 16.8124C26.1808 22.9049 21.8708 23.2912 21.0783 23.5549C20.7396 23.6674 17.5958 24.4762 13.6483 24.2124Z" fill="white"/>
<path d="M15.2784 5.37109C14.7972 5.37109 14.7972 6.12109 15.2784 6.12734C19.0122 6.15609 22.0872 8.75859 22.1209 13.5323C22.1209 14.0361 22.8584 14.0298 22.8522 13.5261H22.8509C22.8109 8.38234 19.4534 5.39984 15.2784 5.37109Z" fill="white"/>
<path d="M20.1897 12.7414C20.1784 13.2389 20.9147 13.2627 20.9209 12.7589C20.9822 9.92267 19.2334 7.58642 15.9472 7.34017C15.4659 7.30517 15.4159 8.06142 15.8959 8.09642C18.7459 8.31267 20.2472 10.2577 20.1897 12.7414Z" fill="white"/>
<path d="M19.4022 15.9675C18.7847 15.61 18.156 15.8325 17.896 16.1838L17.3522 16.8875C17.076 17.245 16.5597 17.1975 16.5597 17.1975C12.7922 16.2013 11.7847 12.2588 11.7847 12.2588C11.7847 12.2588 11.7385 11.725 12.0835 11.4388L12.7635 10.8763C13.1035 10.6063 13.3185 9.95626 12.9722 9.31751C12.0472 7.64626 11.426 7.07001 11.1097 6.62751C10.7772 6.21126 10.2772 6.11751 9.75725 6.39876H9.746C8.66475 7.03126 7.481 8.21501 7.85975 9.43376C8.506 10.7188 9.6935 14.815 13.4785 17.91C15.2572 19.3738 18.0722 20.8738 19.2672 21.22L19.2785 21.2375C20.456 21.63 21.601 20.4 22.2122 19.2863V19.2775C22.4835 18.7388 22.3935 18.2288 21.9972 17.895C21.2947 17.21 20.2347 16.4538 19.4022 15.9675Z" fill="white"/>
<path d="M16.4622 10.1302C17.6634 10.2002 18.2459 10.8277 18.3084 12.1165C18.3309 12.6202 19.0622 12.5852 19.0397 12.0815C18.9597 10.399 18.0822 9.46147 16.5022 9.37397C16.0209 9.34522 15.9759 10.1015 16.4622 10.1302Z" fill="white"/>
</g>
<defs>
<clipPath id="clip0">
<rect width="30" height="30" fill="white" transform="translate(0.000976562)"/>
</clipPath>
</defs>
</svg>
