<svg width="30" height="30" viewBox="0 0 30 30" fill="none" xmlns="http://www.w3.org/2000/svg">
<g clip-path="url(#clip0)">
<path d="M21.8849 17.8838L21.8736 17.9776C19.1249 16.6076 18.8374 16.4251 18.4824 16.9576C18.2361 17.3263 17.5186 18.1626 17.3024 18.4101C17.0836 18.6538 16.8661 18.6726 16.4949 18.5038C16.1199 18.3163 14.9161 17.9226 13.4911 16.6476C12.3811 15.6538 11.6361 14.4351 11.4161 14.0601C11.0499 13.4276 11.8161 13.3376 12.5136 12.0176C12.6386 11.7551 12.5749 11.5488 12.4824 11.3626C12.3886 11.1751 11.6424 9.33759 11.3299 8.60509C11.0299 7.87509 10.7211 7.96759 10.4899 7.96759C9.7699 7.90509 9.24365 7.91509 8.7799 8.39759C6.7624 10.6151 7.27115 12.9026 8.9974 15.3351C12.3899 19.7751 14.1974 20.5926 17.5024 21.7276C18.3949 22.0113 19.2086 21.9713 19.8524 21.8788C20.5699 21.7651 22.0611 20.9776 22.3724 20.0963C22.6911 19.2151 22.6911 18.4838 22.5974 18.3151C22.5049 18.1463 22.2599 18.0526 21.8849 17.8838Z" fill="white"/>
<path d="M25.651 4.3113C16.0397 -4.97995 0.133477 1.7588 0.127227 14.8663C0.127227 17.4863 0.813477 20.0413 2.12098 22.2976L0.000976562 30.0001L7.91973 27.9351C17.801 33.2726 29.996 26.1851 30.001 14.8738C30.001 10.9038 28.451 7.16755 25.6322 4.36005L25.651 4.3113ZM27.5035 14.8326C27.496 24.3738 17.0222 30.3326 8.73848 25.4626L8.28848 25.1951L3.60098 26.4138L4.85723 21.8576L4.55848 21.3888C-0.596524 13.1826 5.32598 2.45755 15.091 2.45755C18.4085 2.45755 21.5222 3.7513 23.8672 6.09505C26.211 8.4188 27.5035 11.5326 27.5035 14.8326Z" fill="white"/>
</g>
<defs>
<clipPath id="clip0">
<rect width="30" height="30" fill="white" transform="translate(0.000976562)"/>
</clipPath>
</defs>
</svg>
